0
SECTION
2
HEADER
9
$INSUNITS
70
4
9
$ACADVER
1
AC1014
9
$HANDSEED
5
FFFF
0
ENDSEC
0
SECTION
2
TABLES
0
TABLE
2
VPORT
5
8
100
AcDbSymbolTable
0
ENDTAB
0
TABLE
2
LTYPE
5
5
100
AcDbSymbolTable
0
LTYPE
5
14
100
AcDbSymbolTableRecord
100
AcDbLinetypeTableRecord
2
BYBLOCK
70
0
0
LTYPE
5
15
100
AcDbSymbolTableRecord
100
AcDbLinetypeTableRecord
2
BYLAYER
70
0
0
ENDTAB
0
TABLE
2
LAYER
5
2
100
AcDbSymbolTable
70
2
0
LAYER
5
50
100
AcDbSymbolTableRecord
100
AcDbLayerTableRecord
2
0
70
0
6
CONTINUOUS
0
ENDTAB
0
TABLE
2
STYLE
5
3
100
AcDbSymbolTable
70
1
0
STYLE
5
11
100
AcDbSymbolTableRecord
100
AcDbTextStyleTableRecord
2
STANDARD
70
0
0
ENDTAB
0
TABLE
2
VIEW
5
6
100
AcDbSymbolTable
70
0
0
ENDTAB
0
TABLE
2
UCS
5
7
100
AcDbSymbolTable
70
0
0
ENDTAB
0
TABLE
2
APPID
5
9
100
AcDbSymbolTable
70
2
0
APPID
5
12
100
AcDbSymbolTableRecord
100
AcDbRegAppTableRecord
2
ACAD
70
0
0
ENDTAB
0
TABLE
2
DIMSTYLE
5
A
100
AcDbSymbolTable
70
1
0
ENDTAB
0
TABLE
2
BLOCK_RECORD
5
1
100
AcDbSymbolTable
70
1
0
BLOCK_RECORD
5
1F
100
AcDbSymbolTableRecord
100
AcDbBlockTableRecord
2
*MODEL_SPACE
0
BLOCK_RECORD
5
1B
100
AcDbSymbolTableRecord
100
AcDbBlockTableRecord
2
*PAPER_SPACE
0
ENDTAB
0
ENDSEC
0
SECTION
2
BLOCKS
0
BLOCK
5
20
100
AcDbEntity
100
AcDbBlockBegin
2
*MODEL_SPACE
0
ENDBLK
5
21
100
AcDbEntity
100
AcDbBlockEnd
0
BLOCK
5
1C
100
AcDbEntity
100
AcDbBlockBegin
2
*PAPER_SPACE
0
ENDBLK
5
1D
100
AcDbEntity
100
AcDbBlockEnd
0
ENDSEC
0
SECTION
2
ENTITIES
0
LWPOLYLINE
5
100
100
AcDbEntity
8
0
100
AcDbPolyline
90
8
70
1
43
0.0
10
112.1982298937173
20
-3.0259960232689598
42
-0.41421356237309503
10
114.1982298937173
20
-5.0259960232689505
10
114.19822989371731
20
-38.711860193896115
42
-0.41421356237309503
10
112.19822989371733
20
-40.711860193896115
10
4.0250520637693832
20
-40.711860193896129
42
-0.41421356237309503
10
2.0250520637693725
20
-38.711860193896115
10
2.0250520637693779
20
-5.0259960232689505
42
-0.41421356237309598
10
4.0250520637693832
20
-3.0259960232689522
0
CIRCLE
5
101
100
AcDbEntity
8
0
100
AcDbCircle
10
-77.542966684472674
20
-5.7978325556357424
30
0
40
1.4500000000000046
210
0
220
0
230
-1
0
CIRCLE
5
102
100
AcDbEntity
8
0
100
AcDbCircle
10
-38.718539715507177
20
-5.7978325556357424
30
0
40
1.4499999999999957
210
0
220
0
230
-1
0
CIRCLE
5
103
100
AcDbEntity
8
0
100
AcDbCircle
10
-77.505268895189786
20
-21.194983160678586
30
0
40
2.2500000000000053
210
0
220
0
230
-1
0
CIRCLE
5
104
100
AcDbEntity
8
0
100
AcDbCircle
10
-38.684694366609868
20
-21.205884870040109
30
0
40
2.2499999999999964
210
0
220
0
230
-1
0
CIRCLE
5
105
100
AcDbEntity
8
0
100
AcDbCircle
10
-103.11888023210926
20
-37.350846262224223
30
0
40
1.5392893218813519
210
0
220
0
230
-1
0
CIRCLE
5
106
100
AcDbEntity
8
0
100
AcDbCircle
10
-109.60888023210926
20
-34.670846262224217
30
0
40
1.5392893218813519
210
0
220
0
230
-1
0
CIRCLE
5
107
100
AcDbEntity
8
0
100
AcDbCircle
10
-90.558880232109288
20
-34.670846262224131
30
0
40
1.5392893218813519
210
0
220
0
230
-1
0
CIRCLE
5
108
100
AcDbEntity
8
0
100
AcDbCircle
10
-84.068880232109308
20
-37.350846262224145
30
0
40
1.5392893218813519
210
0
220
0
230
-1
0
CIRCLE
5
109
100
AcDbEntity
8
0
100
AcDbCircle
10
-93.593880232109285
20
-18.30094626222418
30
0
40
1.5392893218813519
210
0
220
0
230
-1
0
CIRCLE
5
110
100
AcDbEntity
8
0
100
AcDbCircle
10
-100.08388023210928
20
-15.620946262224164
30
0
40
1.5392893218813519
210
0
220
0
230
-1
0
CIRCLE
5
111
100
AcDbEntity
8
0
100
AcDbCircle
10
-71.509580232109329
20
-33.971446262224141
30
0
40
1.5392893218813519
210
0
220
0
230
-1
0
CIRCLE
5
112
100
AcDbEntity
8
0
100
AcDbCircle
10
-65.019580232109334
20
-36.651446262224148
30
0
40
1.539289321881343
210
0
220
0
230
-1
0
CIRCLE
5
113
100
AcDbEntity
8
0
100
AcDbCircle
10
-55.494580232109357
20
-18.300946262224155
30
0
40
1.539289321881343
210
0
220
0
230
-1
0
CIRCLE
5
114
100
AcDbEntity
8
0
100
AcDbCircle
10
-61.984580232109352
20
-15.620946262224141
30
0
40
1.539289321881343
210
0
220
0
230
-1
0
CIRCLE
5
115
100
AcDbEntity
8
0
100
AcDbCircle
10
-45.969580232109365
20
-36.651446262224127
30
0
40
1.5392893218813519
210
0
220
0
230
-1
0
CIRCLE
5
116
100
AcDbEntity
8
0
100
AcDbCircle
10
-52.45958023210936
20
-33.97144626222412
30
0
40
1.539289321881343
210
0
220
0
230
-1
0
CIRCLE
5
117
100
AcDbEntity
8
0
100
AcDbCircle
10
-33.409580232109349
20
-33.971446262224134
30
0
40
1.5392893218813519
210
0
220
0
230
-1
0
CIRCLE
5
118
100
AcDbEntity
8
0
100
AcDbCircle
10
-26.919580232109354
20
-36.651446262224148
30
0
40
1.5392893218813519
210
0
220
0
230
-1
0
CIRCLE
5
119
100
AcDbEntity
8
0
100
AcDbCircle
10
-7.8690802321093702
20
-36.651446262224205
30
0
40
1.5392893218813508
210
0
220
0
230
-1
0
CIRCLE
5
120
100
AcDbEntity
8
0
100
AcDbCircle
10
-14.359080232109365
20
-33.971446262224191
30
0
40
1.5392893218813497
210
0
220
0
230
-1
0
CIRCLE
5
121
100
AcDbEntity
8
0
100
AcDbCircle
10
-23.883980232109341
20
-15.620946262224166
30
0
40
1.5392893218813519
210
0
220
0
230
-1
0
CIRCLE
5
122
100
AcDbEntity
8
0
100
AcDbCircle
10
-17.393980232109346
20
-18.30094626222418
30
0
40
1.5392893218813519
210
0
220
0
230
-1
0
CIRCLE
5
123
100
AcDbEntity
8
0
100
AcDbCircle
10
-19.999861399999975
20
-12.947654201768426
30
0
40
1.9422649730810004
210
0
220
0
230
-1
0
CIRCLE
5
124
100
AcDbEntity
8
0
100
AcDbCircle
10
-14.999861399999975
20
-12.947654201768437
30
0
40
0.81829657301140113
210
0
220
0
230
-1
0
CIRCLE
5
125
100
AcDbEntity
8
0
100
AcDbCircle
10
-24.999861399999975
20
-12.947654201768415
30
0
40
0.81829657301140113
210
0
220
0
230
-1
0
CIRCLE
5
126
100
AcDbEntity
8
0
100
AcDbCircle
10
-5.4749614000000024
20
-31.298154201768469
30
0
40
0.81829657301140002
210
0
220
0
230
-1
0
CIRCLE
5
127
100
AcDbEntity
8
0
100
AcDbCircle
10
-10.474961400000002
20
-31.298154201768462
30
0
40
1.9422649730810004
210
0
220
0
230
-1
0
CIRCLE
5
128
100
AcDbEntity
8
0
100
AcDbCircle
10
-15.474961400000002
20
-31.298154201768448
30
0
40
0.81829657301140113
210
0
220
0
230
-1
0
CIRCLE
5
129
100
AcDbEntity
8
0
100
AcDbCircle
10
-100.72476139999999
20
-31.997554201768477
30
0
40
0.81829657301138781
210
0
220
0
230
-1
0
CIRCLE
5
130
100
AcDbEntity
8
0
100
AcDbCircle
10
-86.674761399999994
20
-31.997554201768416
30
0
40
1.9422649730810093
210
0
220
0
230
-1
0
CIRCLE
5
131
100
AcDbEntity
8
0
100
AcDbCircle
10
-72.625461400000006
20
-31.298154201768419
30
0
40
0.81829657301139669
210
0
220
0
230
-1
0
CIRCLE
5
132
100
AcDbEntity
8
0
100
AcDbCircle
10
-24.525461400000022
20
-31.298154201768416
30
0
40
0.81829657301140113
210
0
220
0
230
-1
0
CIRCLE
5
133
100
AcDbEntity
8
0
100
AcDbCircle
10
-34.525461400000019
20
-31.298154201768394
30
0
40
0.81829657301140113
210
0
220
0
230
-1
0
CIRCLE
5
134
100
AcDbEntity
8
0
100
AcDbCircle
10
-43.57546140000003
20
-31.298154201768412
30
0
40
0.81829657301139669
210
0
220
0
230
-1
0
CIRCLE
5
135
100
AcDbEntity
8
0
100
AcDbCircle
10
-81.674761399999994
20
-31.997554201768427
30
0
40
0.81829657301138781
210
0
220
0
230
-1
0
CIRCLE
5
136
100
AcDbEntity
8
0
100
AcDbCircle
10
-105.72476139999999
20
-31.997554201768462
30
0
40
1.9422649730810093
210
0
220
0
230
-1
0
CIRCLE
5
137
100
AcDbEntity
8
0
100
AcDbCircle
10
-91.674761399999994
20
-31.997554201768402
30
0
40
0.81829657301138781
210
0
220
0
230
-1
0
CIRCLE
5
138
100
AcDbEntity
8
0
100
AcDbCircle
10
-67.625461400000006
20
-31.298154201768433
30
0
40
1.9422649730810004
210
0
220
0
230
-1
0
CIRCLE
5
139
100
AcDbEntity
8
0
100
AcDbCircle
10
-53.57546140000003
20
-31.298154201768391
30
0
40
0.81829657301139669
210
0
220
0
230
-1
0
CIRCLE
5
140
100
AcDbEntity
8
0
100
AcDbCircle
10
-29.525461400000022
20
-31.298154201768405
30
0
40
1.9422649730810004
210
0
220
0
230
-1
0
CIRCLE
5
141
100
AcDbEntity
8
0
100
AcDbCircle
10
-48.57546140000003
20
-31.298154201768398
30
0
40
1.9422649730810004
210
0
220
0
230
-1
0
CIRCLE
5
142
100
AcDbEntity
8
0
100
AcDbCircle
10
-62.625461400000006
20
-31.29815420176844
30
0
40
0.81829657301139669
210
0
220
0
230
-1
0
CIRCLE
5
143
100
AcDbEntity
8
0
100
AcDbCircle
10
-110.72476139999999
20
-31.997554201768455
30
0
40
0.81829657301138781
210
0
220
0
230
-1
0
CIRCLE
5
144
100
AcDbEntity
8
0
100
AcDbCircle
10
-96.199761399999971
20
-12.947654201768406
30
0
40
1.9422649730810093
210
0
220
0
230
-1
0
CIRCLE
5
145
100
AcDbEntity
8
0
100
AcDbCircle
10
-58.1004614
20
-12.947654201768389
30
0
40
1.9422649730810004
210
0
220
0
230
-1
0
CIRCLE
5
146
100
AcDbEntity
8
0
100
AcDbCircle
10
-63.1004614
20
-12.947654201768376
30
0
40
0.81829657301139669
210
0
220
0
230
-1
0
CIRCLE
5
147
100
AcDbEntity
8
0
100
AcDbCircle
10
-91.199761399999971
20
-12.947654201768417
30
0
40
0.81829657301138781
210
0
220
0
230
-1
0
CIRCLE
5
148
100
AcDbEntity
8
0
100
AcDbCircle
10
-53.1004614
20
-12.947654201768401
30
0
40
0.81829657301139669
210
0
220
0
230
-1
0
CIRCLE
5
149
100
AcDbEntity
8
0
100
AcDbCircle
10
-101.19976139999997
20
-12.947654201768394
30
0
40
0.81829657301138781
210
0
220
0
230
-1
0
ENDSEC
0
SECTION
2
OBJECTS
0
DICTIONARY
5
C
100
AcDbDictionary
3
ACAD_GROUP
350
D
3
ACAD_MLINESTYLE
350
17
0
DICTIONARY
5
D
100
AcDbDictionary
0
DICTIONARY
5
1A
330
C
100
AcDbDictionary
0
DICTIONARY
5
17
100
AcDbDictionary
0
ENDSEC
0
EOF
