0
SECTION
2
HEADER
9
$INSUNITS
70
4
9
$ACADVER
1
AC1014
9
$HANDSEED
5
FFFF
0
ENDSEC
0
SECTION
2
TABLES
0
TABLE
2
VPORT
5
8
100
AcDbSymbolTable
0
ENDTAB
0
TABLE
2
LTYPE
5
5
100
AcDbSymbolTable
0
LTYPE
5
14
100
AcDbSymbolTableRecord
100
AcDbLinetypeTableRecord
2
BYBLOCK
70
0
0
LTYPE
5
15
100
AcDbSymbolTableRecord
100
AcDbLinetypeTableRecord
2
BYLAYER
70
0
0
ENDTAB
0
TABLE
2
LAYER
5
2
100
AcDbSymbolTable
70
2
0
LAYER
5
50
100
AcDbSymbolTableRecord
100
AcDbLayerTableRecord
2
0
70
0
6
CONTINUOUS
0
ENDTAB
0
TABLE
2
STYLE
5
3
100
AcDbSymbolTable
70
1
0
STYLE
5
11
100
AcDbSymbolTableRecord
100
AcDbTextStyleTableRecord
2
STANDARD
70
0
0
ENDTAB
0
TABLE
2
VIEW
5
6
100
AcDbSymbolTable
70
0
0
ENDTAB
0
TABLE
2
UCS
5
7
100
AcDbSymbolTable
70
0
0
ENDTAB
0
TABLE
2
APPID
5
9
100
AcDbSymbolTable
70
2
0
APPID
5
12
100
AcDbSymbolTableRecord
100
AcDbRegAppTableRecord
2
ACAD
70
0
0
ENDTAB
0
TABLE
2
DIMSTYLE
5
A
100
AcDbSymbolTable
70
1
0
ENDTAB
0
TABLE
2
BLOCK_RECORD
5
1
100
AcDbSymbolTable
70
1
0
BLOCK_RECORD
5
1F
100
AcDbSymbolTableRecord
100
AcDbBlockTableRecord
2
*MODEL_SPACE
0
BLOCK_RECORD
5
1B
100
AcDbSymbolTableRecord
100
AcDbBlockTableRecord
2
*PAPER_SPACE
0
ENDTAB
0
ENDSEC
0
SECTION
2
BLOCKS
0
BLOCK
5
20
100
AcDbEntity
100
AcDbBlockBegin
2
*MODEL_SPACE
0
ENDBLK
5
21
100
AcDbEntity
100
AcDbBlockEnd
0
BLOCK
5
1C
100
AcDbEntity
100
AcDbBlockBegin
2
*PAPER_SPACE
0
ENDBLK
5
1D
100
AcDbEntity
100
AcDbBlockEnd
0
ENDSEC
0
SECTION
2
ENTITIES
0
LWPOLYLINE
5
100
100
AcDbEntity
8
0
100
AcDbPolyline
90
7
70
1
43
0.0
10
17.474961399999998
20
-38.347554201768432
10
17.474961399999998
20
-24.648154201768413
10
3.7754113999999994
20
-24.64815420176841
42
0.41421356237309398
10
3.4754114000000005
20
-24.948154201768411
10
3.4754114000000005
20
-38.347554201768418
42
0.41421356237309398
10
3.7754113999999994
20
-38.647554201768422
10
17.174961400000001
20
-38.647554201768429
42
0.41421356237309287
0
LWPOLYLINE
5
101
100
AcDbEntity
8
0
100
AcDbPolyline
90
7
70
1
43
0.0
10
36.224761400000006
20
-24.648154201768413
10
22.525461400000001
20
-24.648154201768413
10
22.525461400000001
20
-38.347554201768418
42
0.41421356237309503
10
22.825461400000002
20
-38.647554201768422
10
36.224761400000006
20
-38.647554201768429
42
0.41421356237309503
10
36.524761400000003
20
-38.347554201768432
10
36.524761400000003
20
-24.948154201768418
42
0.41421356237309503
0
LWPOLYLINE
5
102
100
AcDbEntity
8
0
100
AcDbPolyline
90
7
70
1
43
0.0
10
55.274761399999988
20
-24.648154201768413
10
41.575461400000002
20
-24.648154201768413
10
41.575461400000002
20
-38.347554201768418
42
0.41421356237309503
10
41.875461400000006
20
-38.647554201768422
10
55.274761399999988
20
-38.647554201768429
42
0.41421356237309503
10
55.574761399999993
20
-38.347554201768432
10
55.574761399999993
20
-24.948154201768418
42
0.41421356237309503
0
LWPOLYLINE
5
103
100
AcDbEntity
8
0
100
AcDbPolyline
90
7
70
1
43
0.0
10
74.324761399999986
20
-24.648154201768413
10
60.625461400000006
20
-24.648154201768413
10
60.625461400000013
20
-38.347554201768418
42
0.41421356237309503
10
60.925461400000017
20
-38.647554201768422
10
74.324761399999986
20
-38.647554201768429
42
0.41421356237309503
10
74.624761399999983
20
-38.347554201768432
10
74.624761399999983
20
-24.948154201768418
42
0.41421356237309503
0
LWPOLYLINE
5
104
100
AcDbEntity
8
0
100
AcDbPolyline
90
7
70
1
43
0.0
10
79.9754614
20
-38.647554201768422
10
93.674761400000008
20
-38.647554201768422
10
93.674761399999994
20
-24.948154201768418
42
0.41421356237309503
10
93.374761399999997
20
-24.648154201768413
10
79.9754614
20
-24.64815420176841
42
0.41421356237309503
10
79.675461399999989
20
-24.948154201768411
10
79.675461400000003
20
-38.347554201768418
42
0.41421356237309503
0
LWPOLYLINE
5
105
100
AcDbEntity
8
0
100
AcDbPolyline
90
7
70
1
43
0.0
10
99.024061400000036
20
-38.647554201768422
10
112.72476140000002
20
-38.647554201768422
10
112.72476140000001
20
-24.948154201768418
42
0.41421356237309503
10
112.42476140000001
20
-24.648154201768413
10
99.024061400000022
20
-24.64815420176841
42
0.41421356237309503
10
98.724061400000025
20
-24.948154201768411
10
98.724061400000039
20
-38.347554201768418
42
0.41421356237309503
0
LWPOLYLINE
5
106
100
AcDbEntity
8
0
100
AcDbPolyline
90
7
70
1
43
0.0
10
89.500461400000006
20
-19.59765420176841
10
103.19976140000001
20
-19.59765420176841
10
103.1997614
20
-5.8981942017684101
42
0.41421356237309614
10
102.8997614
20
-5.5981942017684077
10
89.500461400000006
20
-5.5981942017684085
42
0.41421356237309398
10
89.200461400000023
20
-5.8981942017684075
10
89.200461400000023
20
-19.297654201768417
42
0.41421356237309503
0
LWPOLYLINE
5
107
100
AcDbEntity
8
0
100
AcDbPolyline
90
7
70
1
43
0.0
10
51.100461400000007
20
-5.8981942017684101
10
51.100461400000007
20
-19.59765420176841
10
64.799761399999994
20
-19.597654201768414
42
0.41421356237309503
10
65.099761400000006
20
-19.297654201768417
10
65.099761400000006
20
-5.8981942017684101
42
0.41421356237309614
10
64.799761399999994
20
-5.5981942017684077
10
51.400461400000012
20
-5.5981942017684094
42
0.41421356237309503
0
LWPOLYLINE
5
108
100
AcDbEntity
8
0
100
AcDbPolyline
90
7
70
1
43
0.0
10
13.300461400000003
20
-19.59765420176841
10
26.999861400000004
20
-19.59765420176841
10
26.999861400000004
20
-5.8981942017684101
42
0.41421356237309614
10
26.699861400000007
20
-5.5981942017684077
10
13.300461400000001
20
-5.5981942017684085
42
0.41421356237309398
10
13.000461400000001
20
-5.8981942017684075
10
13.000461400000002
20
-19.297654201768417
42
0.41421356237309503
0
LWPOLYLINE
5
109
100
AcDbEntity
8
0
100
AcDbPolyline
90
4
70
1
43
0.0
10
50.724640811253636
20
-21.831504708231652
42
-0.99999999999999989
10
50.724640811253636
20
-22.831504708231648
10
6.7246408112536304
20
-22.831504708231645
42
-0.99999999999999989
10
6.7246408112536304
20
-21.831504708231648
0
LWPOLYLINE
5
110
100
AcDbEntity
8
0
100
AcDbPolyline
90
4
70
1
43
0.0
10
65.658037964484748
20
-22.831504708231655
10
109.65803796448475
20
-22.831504708231655
42
0.99999999999999989
10
109.65803796448475
20
-21.831504708231648
10
65.658037964484762
20
-21.831504708231648
42
0.99999999999999989
0
LWPOLYLINE
5
111
100
AcDbEntity
8
0
100
AcDbPolyline
90
8
70
1
43
0.0
10
74.074561400000007
20
-19.597654201768417
42
-0.41421356237309503
10
73.77456140000001
20
-19.297654201768417
10
73.77456140000001
20
-5.8976542017684075
42
-0.41421356237309287
10
74.074561400000007
20
-5.5976542017684094
10
81.049761400000023
20
-5.5976542017684157
42
-0.41421356237309398
10
81.349761400000006
20
-5.8976542017684075
10
81.349761400000006
20
-19.297654201768417
42
-0.41421356237309503
10
81.049761400000023
20
-19.597654201768414
0
LWPOLYLINE
5
112
100
AcDbEntity
8
0
100
AcDbPolyline
90
8
70
1
43
0.0
10
35.150561399999994
20
-19.59765420176841
10
42.125661399999991
20
-19.59765420176841
42
0.41421356237309503
10
42.425661399999996
20
-19.297654201768417
10
42.425661399999981
20
-5.8988686147124048
42
0.41538946906768259
10
42.124457465192464
20
-5.5988710304871514
10
35.149357465192487
20
-5.6268631414823833
42
0.41303863262272289
10
34.850561400000004
20
-5.9268607257076233
10
34.850561399999997
20
-19.297654201768417
42
0.41421356237309503
0
LWPOLYLINE
5
113
100
AcDbEntity
8
0
100
AcDbPolyline
90
72
70
1
43
0.0
10
99.250761400000016
20
-41.922054201768418
42
-0.41421356237309503
10
100.25076140000002
20
-42.922054201768418
10
100.25076140000002
20
-45.172054201768425
42
-0.41421356237309503
10
99.250761400000016
20
-46.172054201768418
10
66.250761400000016
20
-46.172054201768418
42
-0.41421356237309503
10
65.250761400000016
20
-45.172054201768425
10
65.250761400000016
20
-42.922054201768418
42
-0.41421356237309503
10
66.250761400000016
20
-41.922054201768418
10
74.900761400000007
20
-41.922054201768418
42
0.41421356237309503
10
75.250761400000016
20
-41.572054201768424
10
75.250761400000016
20
-41.522054201768427
42
0.41421356237309503
10
74.900761400000007
20
-41.172054201768418
10
41.300846
20
-41.172054201768418
42
0.41421356237309503
10
40.950845999999999
20
-41.52205420176842
10
40.950845999999999
20
-41.572054201768424
42
0.41421356237309503
10
41.300846
20
-41.922054201768418
10
49.950845999999999
20
-41.922054201768418
42
-0.41421356237309503
10
50.950845999999999
20
-42.922054201768418
10
50.950845999999999
20
-45.172054201768425
42
-0.41421356237309503
10
49.950845999999999
20
-46.172054201768418
10
16.950845999999995
20
-46.172054201768432
42
-0.4142135623730937
10
15.950845999999999
20
-45.172054201768425
10
15.950846000000002
20
-42.922054201768418
42
-0.41421356237309503
10
16.950845999999999
20
-41.922054201768418
10
25.600845999999997
20
-41.922054201768418
42
0.41421356237309503
10
25.950846000000002
20
-41.572054201768424
10
25.950845999999999
20
-41.522054201768427
42
0.41421356237309503
10
25.600845999999997
20
-41.172054201768418
10
1.9508460000000043
20
-41.172054201768447
42
-0.41421356237309515
10
0.95084600000000008
20
-40.172054201768439
10
0.95084600000000019
20
-4.0722472017684073
42
-0.41421356237309359
10
1.950845999999995
20
-3.0722472017684077
10
25.600845999999997
20
-3.0722472017684082
42
0.41421356237309503
10
25.950846000000002
20
-2.7222472017684085
10
25.950845999999999
20
-2.6722472017684074
42
0.41421356237309503
10
25.600845999999997
20
-2.3222472017684082
10
16.950845999999995
20
-2.3222472017684064
42
-0.41421356237309437
10
15.950845999999999
20
-1.3222472017684075
10
15.950845999999999
20
0.92775279823159351
42
-0.41421356237309498
10
16.950845999999999
20
1.9277527982315945
10
49.950845999999999
20
1.9277527982315898
42
-0.41421356237309503
10
50.950845999999999
20
0.9277527982315934
10
50.950845999999999
20
-1.3222472017684086
42
-0.41421356237309503
10
49.950845999999999
20
-2.3222472017684082
10
41.300846
20
-2.3222472017684086
42
0.41421356237309503
10
40.950845999999999
20
-2.6722472017684087
10
40.950845999999999
20
-2.7222472017684085
42
0.41421356237309548
10
41.300846
20
-3.0722472017684077
10
74.900761400000007
20
-3.0722472017684099
42
0.41421356237309459
10
75.250761400000016
20
-2.7222472017684107
10
75.250761400000016
20
-2.6722472017684096
42
0.41421356237309503
10
74.900761400000007
20
-2.322247201768409
10
66.250761400000016
20
-2.3222472017684064
42
-0.41421356237309503
10
65.250761400000016
20
-1.3222472017684097
10
65.250761400000016
20
0.92775279823159351
42
-0.41421356237309498
10
66.250761400000016
20
1.9277527982315927
10
99.250761400000016
20
1.9277527982315903
42
-0.41421356237309503
10
100.25076140000002
20
0.92775279823159384
10
100.25076140000002
20
-1.3222472017684093
42
-0.41421356237309515
10
99.250761400000016
20
-2.322247201768409
10
90.60076140000001
20
-2.3222472017684095
42
0.41421356237309503
10
90.250761400000016
20
-2.6722472017684096
10
90.250761400000016
20
-2.7222472017684107
42
0.41421356237309459
10
90.60076140000001
20
-3.0722472017684095
10
114.25076140000002
20
-3.0722472017684144
42
-0.41421356237309503
10
115.25076140000002
20
-4.0722472017684108
10
115.25076139999999
20
-40.172054201768432
42
-0.41421356237309503
10
114.25076140000002
20
-41.172054201768418
10
90.60076140000001
20
-41.172054201768418
42
0.41421356237309503
10
90.250761400000016
20
-41.52205420176842
10
90.250761400000016
20
-41.572054201768424
42
0.41421356237309503
10
90.60076140000001
20
-41.922054201768418
0
ENDSEC
0
SECTION
2
OBJECTS
0
DICTIONARY
5
C
100
AcDbDictionary
3
ACAD_GROUP
350
D
3
ACAD_MLINESTYLE
350
17
0
DICTIONARY
5
D
100
AcDbDictionary
0
DICTIONARY
5
1A
330
C
100
AcDbDictionary
0
DICTIONARY
5
17
100
AcDbDictionary
0
ENDSEC
0
EOF
